{
	"asset":{
		"generator":"Khronos glTF Blender I/O v4.4.56",
		"version":"2.0"
	},
	"scene":0,
	"scenes":[
		{
			"name":"Scene",
			"nodes":[
				0
			]
		}
	],
	"nodes":[
		{
			"mesh":0,
			"name":"Cube.001",
			"rotation":[
				0,
				-0.7193489670753479,
				0,
				0.6946489810943604
			],
			"translation":[
				-0.015119284391403198,
				0.7243914008140564,
				-0.6715377569198608
			]
		}
	],
	"materials":[
		{
			"alphaMode":"BLEND",
			"doubleSided":true,
			"name":"wood_bright",
			"pbrMetallicRoughness":{
				"baseColorTexture":{
					"index":0
				},
				"metallicFactor":0,
				"metallicRoughnessTexture":{
					"index":1
				}
			}
		},
		{
			"alphaMode":"BLEND",
			"doubleSided":true,
			"name":"wood_dark",
			"pbrMetallicRoughness":{
				"baseColorTexture":{
					"index":2
				},
				"metallicFactor":0,
				"roughnessFactor":0.5
			}
		}
	],
	"meshes":[
		{
			"name":"Cube.001",
			"primitives":[
				{
					"attributes":{
						"POSITION":0,
						"NORMAL":1,
						"TEXCOORD_0":2
					},
					"indices":3,
					"material":0
				},
				{
					"attributes":{
						"POSITION":4,
						"NORMAL":5,
						"TEXCOORD_0":6
					},
					"indices":7,
					"material":1
				}
			]
		}
	],
	"textures":[
		{
			"sampler":0,
			"source":0
		},
		{
			"sampler":0,
			"source":1
		},
		{
			"sampler":0,
			"source":2
		}
	],
	"images":[
		{
			"mimeType":"image/png",
			"name":"wood_bright",
			"uri":"wood_bright.png"
		},
		{
			"mimeType":"image/png",
			"name":"wood_bright",
			"uri":"wood_bright-1.png"
		},
		{
			"mimeType":"image/png",
			"name":"wood-dark",
			"uri":"wood-dark.png"
		}
	],
	"accessors":[
		{
			"bufferView":0,
			"componentType":5126,
			"count":198,
			"max":[
				3.9080264568328857,
				1.9307538270950317,
				2.348160982131958
			],
			"min":[
				1.1526870727539062,
				-1.4073210954666138,
				-2.0281200408935547
			],
			"type":"VEC3"
		},
		{
			"bufferView":1,
			"componentType":5126,
			"count":198,
			"type":"VEC3"
		},
		{
			"bufferView":2,
			"componentType":5126,
			"count":198,
			"type":"VEC2"
		},
		{
			"bufferView":3,
			"componentType":5123,
			"count":306,
			"type":"SCALAR"
		},
		{
			"bufferView":4,
			"componentType":5126,
			"count":998,
			"max":[
				4.4910502433776855,
				2.235015630722046,
				2.6582868099212646
			],
			"min":[
				1.0968167781829834,
				-3.5679874420166016,
				-2.3092048168182373
			],
			"type":"VEC3"
		},
		{
			"bufferView":5,
			"componentType":5126,
			"count":998,
			"type":"VEC3"
		},
		{
			"bufferView":6,
			"componentType":5126,
			"count":998,
			"type":"VEC2"
		},
		{
			"bufferView":7,
			"componentType":5123,
			"count":1890,
			"type":"SCALAR"
		}
	],
	"bufferViews":[
		{
			"buffer":0,
			"byteLength":2376,
			"byteOffset":0,
			"target":34962
		},
		{
			"buffer":0,
			"byteLength":2376,
			"byteOffset":2376,
			"target":34962
		},
		{
			"buffer":0,
			"byteLength":1584,
			"byteOffset":4752,
			"target":34962
		},
		{
			"buffer":0,
			"byteLength":612,
			"byteOffset":6336,
			"target":34963
		},
		{
			"buffer":0,
			"byteLength":11976,
			"byteOffset":6948,
			"target":34962
		},
		{
			"buffer":0,
			"byteLength":11976,
			"byteOffset":18924,
			"target":34962
		},
		{
			"buffer":0,
			"byteLength":7984,
			"byteOffset":30900,
			"target":34962
		},
		{
			"buffer":0,
			"byteLength":3780,
			"byteOffset":38884,
			"target":34963
		}
	],
	"samplers":[
		{
			"magFilter":9729,
			"minFilter":9987
		}
	],
	"buffers":[
		{
			"byteLength":42664,
			"uri":"chair.bin"
		}
	]
}
