{
	"asset":{
		"generator":"Khronos glTF Blender I/O v4.4.56",
		"version":"2.0"
	},
	"scene":0,
	"scenes":[
		{
			"name":"Scene",
			"nodes":[
				0
			]
		}
	],
	"nodes":[
		{
			"mesh":0,
			"name":"Cube",
			"scale":[
				0.07019929587841034,
				0.1949884593486786,
				0.1916208267211914
			],
			"translation":[
				-0.35694122314453125,
				0.7016032934188843,
				-0.1527518630027771
			]
		}
	],
	"materials":[
		{
			"alphaMode":"BLEND",
			"doubleSided":true,
			"name":"wood_bright",
			"pbrMetallicRoughness":{
				"baseColorTexture":{
					"index":0
				},
				"metallicFactor":0,
				"metallicRoughnessTexture":{
					"index":1
				}
			}
		},
		{
			"alphaMode":"BLEND",
			"doubleSided":true,
			"name":"wood_dark",
			"pbrMetallicRoughness":{
				"baseColorTexture":{
					"index":2
				},
				"metallicFactor":0,
				"roughnessFactor":0.5
			}
		}
	],
	"meshes":[
		{
			"name":"Cube.001",
			"primitives":[
				{
					"attributes":{
						"POSITION":0,
						"NORMAL":1,
						"TEXCOORD_0":2,
						"TANGENT":3
					},
					"indices":4,
					"material":0
				},
				{
					"attributes":{
						"POSITION":5,
						"NORMAL":6,
						"TEXCOORD_0":7,
						"TANGENT":8
					},
					"indices":9,
					"material":1
				}
			]
		}
	],
	"textures":[
		{
			"sampler":0,
			"source":0
		},
		{
			"sampler":0,
			"source":1
		},
		{
			"sampler":0,
			"source":2
		}
	],
	"images":[
		{
			"mimeType":"image/png",
			"name":"wood_bright",
			"uri":"wood_bright.png"
		},
		{
			"mimeType":"image/png",
			"name":"wood_bright",
			"uri":"wood_bright-1.png"
		},
		{
			"mimeType":"image/png",
			"name":"wood-dark",
			"uri":"wood-dark.png"
		}
	],
	"accessors":[
		{
			"bufferView":0,
			"componentType":5126,
			"count":78,
			"max":[
				8.446735382080078,
				1.9307538270950317,
				1.7738268375396729
			],
			"min":[
				-1.393169641494751,
				-1.4121891260147095,
				-1.7738268375396729
			],
			"type":"VEC3"
		},
		{
			"bufferView":1,
			"componentType":5126,
			"count":78,
			"type":"VEC3"
		},
		{
			"bufferView":2,
			"componentType":5126,
			"count":78,
			"type":"VEC2"
		},
		{
			"bufferView":3,
			"componentType":5126,
			"count":78,
			"type":"VEC4"
		},
		{
			"bufferView":4,
			"componentType":5123,
			"count":138,
			"type":"SCALAR"
		},
		{
			"bufferView":5,
			"componentType":5126,
			"count":869,
			"max":[
				9.15185260772705,
				2.235015630722046,
				1.9783992767333984
			],
			"min":[
				-1.4520957469940186,
				-3.5679874420166016,
				-1.9783992767333984
			],
			"type":"VEC3"
		},
		{
			"bufferView":6,
			"componentType":5126,
			"count":869,
			"type":"VEC3"
		},
		{
			"bufferView":7,
			"componentType":5126,
			"count":869,
			"type":"VEC2"
		},
		{
			"bufferView":8,
			"componentType":5126,
			"count":869,
			"type":"VEC4"
		},
		{
			"bufferView":9,
			"componentType":5123,
			"count":1608,
			"type":"SCALAR"
		}
	],
	"bufferViews":[
		{
			"buffer":0,
			"byteLength":936,
			"byteOffset":0,
			"target":34962
		},
		{
			"buffer":0,
			"byteLength":936,
			"byteOffset":936,
			"target":34962
		},
		{
			"buffer":0,
			"byteLength":624,
			"byteOffset":1872,
			"target":34962
		},
		{
			"buffer":0,
			"byteLength":1248,
			"byteOffset":2496,
			"target":34962
		},
		{
			"buffer":0,
			"byteLength":276,
			"byteOffset":3744,
			"target":34963
		},
		{
			"buffer":0,
			"byteLength":10428,
			"byteOffset":4020,
			"target":34962
		},
		{
			"buffer":0,
			"byteLength":10428,
			"byteOffset":14448,
			"target":34962
		},
		{
			"buffer":0,
			"byteLength":6952,
			"byteOffset":24876,
			"target":34962
		},
		{
			"buffer":0,
			"byteLength":13904,
			"byteOffset":31828,
			"target":34962
		},
		{
			"buffer":0,
			"byteLength":3216,
			"byteOffset":45732,
			"target":34963
		}
	],
	"samplers":[
		{
			"magFilter":9729,
			"minFilter":9987
		}
	],
	"buffers":[
		{
			"byteLength":48948,
			"uri":"chair.bin"
		}
	]
}
