{
	"asset":{
		"generator":"Khronos glTF Blender I/O v4.4.56",
		"version":"2.0"
	},
	"scene":0,
	"scenes":[
		{
			"name":"Scene",
			"nodes":[
				0
			]
		}
	],
	"nodes":[
		{
			"mesh":0,
			"name":"Chesterfield"
		}
	],
	"materials":[
		{
			"doubleSided":true,
			"name":"Leather1",
			"normalTexture":{
				"index":0
			},
			"pbrMetallicRoughness":{
				"baseColorTexture":{
					"index":1
				},
				"metallicRoughnessTexture":{
					"index":2
				}
			}
		},
		{
			"doubleSided":true,
			"name":"Metal1",
			"normalTexture":{
				"index":3
			},
			"pbrMetallicRoughness":{
				"baseColorTexture":{
					"index":4
				},
				"metallicRoughnessTexture":{
					"index":5
				}
			}
		},
		{
			"doubleSided":true,
			"name":"Wood1",
			"normalTexture":{
				"index":6
			},
			"pbrMetallicRoughness":{
				"baseColorTexture":{
					"index":7
				},
				"metallicRoughnessTexture":{
					"index":8
				}
			}
		}
	],
	"meshes":[
		{
			"name":"Plane.008",
			"primitives":[
				{
					"attributes":{
						"POSITION":0,
						"NORMAL":1,
						"TEXCOORD_0":2,
						"TANGENT":3
					},
					"indices":4,
					"material":0
				},
				{
					"attributes":{
						"POSITION":5,
						"NORMAL":6,
						"TEXCOORD_0":7,
						"TANGENT":8
					},
					"indices":9,
					"material":1
				},
				{
					"attributes":{
						"POSITION":10,
						"NORMAL":11,
						"TEXCOORD_0":12,
						"TANGENT":13
					},
					"indices":14,
					"material":2
				}
			]
		}
	],
	"textures":[
		{
			"sampler":0,
			"source":0
		},
		{
			"sampler":0,
			"source":1
		},
		{
			"sampler":0,
			"source":2
		},
		{
			"sampler":0,
			"source":0
		},
		{
			"sampler":0,
			"source":1
		},
		{
			"sampler":0,
			"source":2
		},
		{
			"sampler":0,
			"source":0
		},
		{
			"sampler":0,
			"source":1
		},
		{
			"sampler":0,
			"source":2
		}
	],
	"images":[
		{
			"mimeType":"image/png",
			"name":"T_ChesterfieldChair1_N",
			"uri":"T_ChesterfieldChair1_N.png"
		},
		{
			"mimeType":"image/png",
			"name":"T_ChesterfieldChair1_D",
			"uri":"T_ChesterfieldChair1_D.png"
		},
		{
			"mimeType":"image/png",
			"name":"T_ChesterfieldChair1_ARM",
			"uri":"T_ChesterfieldChair1_ARM.png"
		}
	],
	"accessors":[
		{
			"bufferView":0,
			"componentType":5126,
			"count":6057,
			"max":[
				0.4774158298969269,
				0.6855243444442749,
				0.46077725291252136
			],
			"min":[
				-0.4756527543067932,
				0.08015710860490799,
				-0.3653515875339508
			],
			"type":"VEC3"
		},
		{
			"bufferView":1,
			"componentType":5126,
			"count":6057,
			"type":"VEC3"
		},
		{
			"bufferView":2,
			"componentType":5126,
			"count":6057,
			"type":"VEC2"
		},
		{
			"bufferView":3,
			"componentType":5126,
			"count":6057,
			"type":"VEC4"
		},
		{
			"bufferView":4,
			"componentType":5123,
			"count":25206,
			"type":"SCALAR"
		},
		{
			"bufferView":5,
			"componentType":5126,
			"count":5252,
			"max":[
				0.4198181629180908,
				0.6350852251052856,
				0.42342281341552734
			],
			"min":[
				-0.4230377972126007,
				0.08331039547920227,
				0.41055306792259216
			],
			"type":"VEC3"
		},
		{
			"bufferView":6,
			"componentType":5126,
			"count":5252,
			"type":"VEC3"
		},
		{
			"bufferView":7,
			"componentType":5126,
			"count":5252,
			"type":"VEC2"
		},
		{
			"bufferView":8,
			"componentType":5126,
			"count":5252,
			"type":"VEC4"
		},
		{
			"bufferView":9,
			"componentType":5123,
			"count":16608,
			"type":"SCALAR"
		},
		{
			"bufferView":10,
			"componentType":5126,
			"count":616,
			"max":[
				0.330445796251297,
				0.08438140153884888,
				0.38386639952659607
			],
			"min":[
				-0.3359328508377075,
				-0.0004188045859336853,
				-0.20823541283607483
			],
			"type":"VEC3"
		},
		{
			"bufferView":11,
			"componentType":5126,
			"count":616,
			"type":"VEC3"
		},
		{
			"bufferView":12,
			"componentType":5126,
			"count":616,
			"type":"VEC2"
		},
		{
			"bufferView":13,
			"componentType":5126,
			"count":616,
			"type":"VEC4"
		},
		{
			"bufferView":14,
			"componentType":5123,
			"count":1440,
			"type":"SCALAR"
		}
	],
	"bufferViews":[
		{
			"buffer":0,
			"byteLength":72684,
			"byteOffset":0,
			"target":34962
		},
		{
			"buffer":0,
			"byteLength":72684,
			"byteOffset":72684,
			"target":34962
		},
		{
			"buffer":0,
			"byteLength":48456,
			"byteOffset":145368,
			"target":34962
		},
		{
			"buffer":0,
			"byteLength":96912,
			"byteOffset":193824,
			"target":34962
		},
		{
			"buffer":0,
			"byteLength":50412,
			"byteOffset":290736,
			"target":34963
		},
		{
			"buffer":0,
			"byteLength":63024,
			"byteOffset":341148,
			"target":34962
		},
		{
			"buffer":0,
			"byteLength":63024,
			"byteOffset":404172,
			"target":34962
		},
		{
			"buffer":0,
			"byteLength":42016,
			"byteOffset":467196,
			"target":34962
		},
		{
			"buffer":0,
			"byteLength":84032,
			"byteOffset":509212,
			"target":34962
		},
		{
			"buffer":0,
			"byteLength":33216,
			"byteOffset":593244,
			"target":34963
		},
		{
			"buffer":0,
			"byteLength":7392,
			"byteOffset":626460,
			"target":34962
		},
		{
			"buffer":0,
			"byteLength":7392,
			"byteOffset":633852,
			"target":34962
		},
		{
			"buffer":0,
			"byteLength":4928,
			"byteOffset":641244,
			"target":34962
		},
		{
			"buffer":0,
			"byteLength":9856,
			"byteOffset":646172,
			"target":34962
		},
		{
			"buffer":0,
			"byteLength":2880,
			"byteOffset":656028,
			"target":34963
		}
	],
	"samplers":[
		{
			"magFilter":9729,
			"minFilter":9987
		}
	],
	"buffers":[
		{
			"byteLength":658908,
			"uri":"chesterfieldarmchair.bin"
		}
	]
}
