{
	"asset":{
		"generator":"Khronos glTF Blender I/O v4.4.56",
		"version":"2.0"
	},
	"extensionsUsed":[
		"KHR_materials_emissive_strength",
		"KHR_materials_specular"
	],
	"scene":0,
	"scenes":[
		{
			"name":"Scene",
			"nodes":[
				1,
				2
			]
		}
	],
	"nodes":[
		{
			"name":"Bone"
		},
		{
			"mesh":0,
			"name":"Intergalactic_Spaceship_RetopoGroup2",
			"skin":0
		},
		{
			"children":[
				0
			],
			"name":"Armature"
		}
	],
	"materials":[
		{
			"doubleSided":true,
			"emissiveFactor":[
				1,
				1,
				1
			],
			"emissiveTexture":{
				"index":0
			},
			"extensions":{
				"KHR_materials_emissive_strength":{
					"emissiveStrength":340.89996337890625
				},
				"KHR_materials_specular":{
					"specularFactor":0
				}
			},
			"name":"Material.001",
			"normalTexture":{
				"index":1,
				"scale":0.4000002145767212
			},
			"pbrMetallicRoughness":{
				"baseColorTexture":{
					"index":2
				},
				"metallicRoughnessTexture":{
					"index":3
				}
			}
		}
	],
	"meshes":[
		{
			"name":"Intergalactic_Spaceship_RetopoGroup2",
			"primitives":[
				{
					"attributes":{
						"POSITION":0,
						"NORMAL":1,
						"TEXCOORD_0":2,
						"JOINTS_0":3,
						"WEIGHTS_0":4
					},
					"indices":5,
					"material":0
				}
			]
		}
	],
	"textures":[
		{
			"sampler":0,
			"source":0
		},
		{
			"sampler":0,
			"source":1
		},
		{
			"sampler":0,
			"source":2
		},
		{
			"sampler":0,
			"source":3
		}
	],
	"images":[
		{
			"mimeType":"image/jpeg",
			"name":"Intergalactic Spaceship_emi",
			"uri":"Intergalactic%20Spaceship_emi.jpg"
		},
		{
			"mimeType":"image/jpeg",
			"name":"Intergalactic Spaceship_nmap_2_Tris",
			"uri":"Intergalactic%20Spaceship_nmap_2_Tris.jpg"
		},
		{
			"mimeType":"image/jpeg",
			"name":"Intergalactic Spaceship_color_4",
			"uri":"Intergalactic%20Spaceship_color_4.jpg"
		},
		{
			"mimeType":"image/jpeg",
			"name":"Intergalactic Spaceship_metalness.jpg-Intergalactic Spaceship_rough.jpg",
			"uri":"Intergalactic%20Spaceship_metalness_jpg-Intergalactic%20Spaceship_rough_jpg.jpg"
		}
	],
	"skins":[
		{
			"inverseBindMatrices":6,
			"joints":[
				0
			],
			"name":"Armature"
		}
	],
	"accessors":[
		{
			"bufferView":0,
			"componentType":5126,
			"count":33854,
			"max":[
				4.77432107925415,
				1.7438607215881348,
				2.4782280921936035
			],
			"min":[
				-4.774631977081299,
				-1.743861198425293,
				-3.2980990409851074
			],
			"type":"VEC3"
		},
		{
			"bufferView":1,
			"componentType":5126,
			"count":33854,
			"type":"VEC3"
		},
		{
			"bufferView":2,
			"componentType":5126,
			"count":33854,
			"type":"VEC2"
		},
		{
			"bufferView":3,
			"componentType":5121,
			"count":33854,
			"type":"VEC4"
		},
		{
			"bufferView":4,
			"componentType":5126,
			"count":33854,
			"type":"VEC4"
		},
		{
			"bufferView":5,
			"componentType":5123,
			"count":165360,
			"type":"SCALAR"
		},
		{
			"bufferView":6,
			"componentType":5126,
			"count":1,
			"type":"MAT4"
		}
	],
	"bufferViews":[
		{
			"buffer":0,
			"byteLength":406248,
			"byteOffset":0,
			"target":34962
		},
		{
			"buffer":0,
			"byteLength":406248,
			"byteOffset":406248,
			"target":34962
		},
		{
			"buffer":0,
			"byteLength":270832,
			"byteOffset":812496,
			"target":34962
		},
		{
			"buffer":0,
			"byteLength":135416,
			"byteOffset":1083328,
			"target":34962
		},
		{
			"buffer":0,
			"byteLength":541664,
			"byteOffset":1218744,
			"target":34962
		},
		{
			"buffer":0,
			"byteLength":330720,
			"byteOffset":1760408,
			"target":34963
		},
		{
			"buffer":0,
			"byteLength":64,
			"byteOffset":2091128
		}
	],
	"samplers":[
		{
			"magFilter":9729,
			"minFilter":9987
		}
	],
	"buffers":[
		{
			"byteLength":2091192,
			"uri":"models/assets/Untitled.bin"
		}
	]
}
