{
	"asset":{
		"generator":"Khronos glTF Blender I/O v4.4.56",
		"version":"2.0"
	},
	"scene":0,
	"scenes":[
		{
			"name":"Scene",
			"nodes":[
				0
			]
		}
	],
	"nodes":[
		{
			"mesh":0,
			"name":"Cube"
		}
	],
	"materials":  [
  {
    "doubleSided": true,
    "name": "Material",
    "normalTexture": { "index": 0 },
    "occlusionTexture": { "index": 4 },
    "extensions": {
      "KHR_materials_displacement": {
        "displacementTexture": { "index": 5 },
        "displacementScale": 0.05
      }
    },
    "pbrMetallicRoughness": {
      "baseColorTexture": { "index": 1 },
      "metallicRoughnessTexture": { "index": 2 },
      "metallicFactor": 1.0,
      "roughnessFactor": 1.0
    }
  }
],
	"meshes":[
		{
			"name":"Cube",
			"primitives":[
				{
					"attributes":{
						"POSITION":0,
						"NORMAL":1,
						"TEXCOORD_0":2,
						"TANGENT":3
					},
					"indices":4,
					"material":0
				}
			]
		}
	],
"textures": [
  { "sampler": 0, "source": 0 },
  { "sampler": 0, "source": 1 },
  { "sampler": 0, "source": 2 },
  { "sampler": 0, "source": 3 },
  { "sampler": 0, "source": 4 },
  { "sampler": 0, "source": 5 }
],
	"images": [
  { "mimeType": "image/jpeg", "name": "nor",   "uri": "nor.jpg"   },
  { "mimeType": "image/jpeg", "name": "diff",  "uri": "diff.jpg"  },
  { "mimeType": "image/jpeg", "name": "metal", "uri": "met.jpg"   },
  { "mimeType": "image/jpeg", "name": "rough", "uri": "rough.jpg" },
  { "mimeType": "image/jpeg", "name": "ao",    "uri": "ao.jpg"    },
  { "mimeType": "image/jpeg", "name": "disp",  "uri": "disp.jpg"  }
],
	"accessors":[
		{
			"bufferView":0,
			"componentType":5126,
			"count":24,
			"max":[
				1,
				1,
				0.25653886795043945
			],
			"min":[
				-1,
				-1,
				-0.25653886795043945
			],
			"type":"VEC3"
		},
		{
			"bufferView":1,
			"componentType":5126,
			"count":24,
			"type":"VEC3"
		},
		{
			"bufferView":2,
			"componentType":5126,
			"count":24,
			"type":"VEC2"
		},
		{
			"bufferView":3,
			"componentType":5126,
			"count":24,
			"type":"VEC4"
		},
		{
			"bufferView":4,
			"componentType":5123,
			"count":36,
			"type":"SCALAR"
		}
	],
	"bufferViews":[
		{
			"buffer":0,
			"byteLength":288,
			"byteOffset":0,
			"target":34962
		},
		{
			"buffer":0,
			"byteLength":288,
			"byteOffset":288,
			"target":34962
		},
		{
			"buffer":0,
			"byteLength":192,
			"byteOffset":576,
			"target":34962
		},
		{
			"buffer":0,
			"byteLength":384,
			"byteOffset":768,
			"target":34962
		},
		{
			"buffer":0,
			"byteLength":72,
			"byteOffset":1152,
			"target":34963
		}
	],
	"samplers":[
		{
			"magFilter":9729,
			"minFilter":9987
		}
	],
	"buffers":[
		{
			"byteLength":1224,
			"uri":"wall.bin"
		}
	]
}
